# WaveFront *.obj file (generated by Autodesk ATF)

mtllib Ball_1.mtl

g Body14

v 4.702282 -6.472136 4.944272
v 7.608452 -2.472136 8.000000
v 4.702282 -1.527864 12.944272
v 0.000000 -4.944272 12.944272
v 0.000000 -8.000000 8.000000
v -0.000000 4.944272 0.000000
v 4.702282 1.527864 0.000000
v 2.906170 -4.000000 0.000000
v -2.906170 -4.000000 0.000000
v -4.702282 1.527864 0.000000
v -4.702282 -6.472136 4.944272
v -4.702282 -1.527864 12.944272
v -7.608452 -2.472136 8.000000
v 7.608452 2.472136 4.944272
v -7.608452 2.472136 4.944272
v 4.702282 6.472136 8.000000
v 2.906170 4.000000 12.944272
v -2.906170 4.000000 12.944272
v -4.702282 6.472136 8.000000
v 0.000000 8.000000 4.944272
vt -0.000000 4.472136 0.000000
vt -4.702282 1.055728 0.000000
vt 4.702282 1.055728 0.000000
vt 2.906170 -4.472136 0.000000
vt -2.906170 -4.472136 0.000000
vt 0.000000 4.472136 0.000000
vt -4.702282 1.055728 0.000000
vt 4.702282 1.055728 0.000000
vt 2.906170 -4.472136 0.000000
vt -2.906170 -4.472136 0.000000
vt 0.000000 4.472136 0.000000
vt -4.702282 1.055728 0.000000
vt 4.702282 1.055728 0.000000
vt 2.906170 -4.472136 0.000000
vt -2.906170 -4.472136 0.000000
vt 0.000000 4.472136 0.000000
vt -4.702282 1.055728 0.000000
vt 4.702282 1.055728 0.000000
vt 2.906170 -4.472136 0.000000
vt -2.906170 -4.472136 0.000000
vt -0.000000 4.472136 0.000000
vt -4.702282 1.055728 0.000000
vt 4.702282 1.055728 0.000000
vt 2.906170 -4.472136 0.000000
vt -2.906170 -4.472136 0.000000
vt -0.000000 4.472136 0.000000
vt -4.702282 1.055728 0.000000
vt 4.702282 1.055728 0.000000
vt 2.906170 -4.472136 0.000000
vt -2.906170 -4.472136 0.000000
vt -0.000000 4.472136 0.000000
vt -4.702282 1.055728 0.000000
vt 4.702282 1.055728 0.000000
vt 2.906170 -4.472136 0.000000
vt -2.906170 -4.472136 0.000000
vt 0.000000 4.472136 0.000000
vt -4.702282 1.055728 0.000000
vt 4.702282 1.055728 0.000000
vt 2.906170 -4.472136 0.000000
vt -2.906170 -4.472136 0.000000
vt 0.000000 4.472136 0.000000
vt -4.702282 1.055728 0.000000
vt 4.702282 1.055728 0.000000
vt 2.906170 -4.472136 0.000000
vt -2.906170 -4.472136 0.000000
vt -0.000000 4.472136 0.000000
vt -4.702282 1.055728 0.000000
vt 4.702282 1.055728 0.000000
vt 2.906170 -4.472136 0.000000
vt -2.906170 -4.472136 0.000000
vt 0.000000 4.472136 0.000000
vt -4.702282 1.055728 0.000000
vt 4.702282 1.055728 0.000000
vt 2.906170 -4.472136 0.000000
vt -2.906170 -4.472136 0.000000
vt 0.000000 4.472136 0.000000
vt -4.702282 1.055728 0.000000
vt 4.702282 1.055728 0.000000
vt 2.906170 -4.472136 0.000000
vt -2.906170 -4.472136 0.000000
vn 0.525731 -0.723607 0.447214
vn 0.525731 -0.723607 0.447214
vn 0.525731 -0.723607 0.447214
vn 0.525731 -0.723607 0.447214
vn 0.525731 -0.723607 0.447214
vn -0.000000 -0.000000 -1.000000
vn -0.000000 -0.000000 -1.000000
vn -0.000000 -0.000000 -1.000000
vn -0.000000 -0.000000 -1.000000
vn -0.000000 -0.000000 -1.000000
vn -0.525731 -0.723607 0.447214
vn -0.525731 -0.723607 0.447214
vn -0.525731 -0.723607 0.447214
vn -0.525731 -0.723607 0.447214
vn -0.525731 -0.723607 0.447214
vn 0.850651 -0.276393 -0.447214
vn 0.850651 -0.276393 -0.447214
vn 0.850651 -0.276393 -0.447214
vn 0.850651 -0.276393 -0.447214
vn 0.850651 -0.276393 -0.447214
vn 0.000000 -0.894427 -0.447214
vn 0.000000 -0.894427 -0.447214
vn 0.000000 -0.894427 -0.447214
vn 0.000000 -0.894427 -0.447214
vn 0.000000 -0.894427 -0.447214
vn -0.850651 -0.276393 -0.447214
vn -0.850651 -0.276393 -0.447214
vn -0.850651 -0.276393 -0.447214
vn -0.850651 -0.276393 -0.447214
vn -0.850651 -0.276393 -0.447214
vn 0.850651 0.276393 0.447214
vn 0.850651 0.276393 0.447214
vn 0.850651 0.276393 0.447214
vn 0.850651 0.276393 0.447214
vn 0.850651 0.276393 0.447214
vn -0.850651 0.276393 0.447214
vn -0.850651 0.276393 0.447214
vn -0.850651 0.276393 0.447214
vn -0.850651 0.276393 0.447214
vn -0.850651 0.276393 0.447214
vn -0.525731 0.723607 -0.447214
vn -0.525731 0.723607 -0.447214
vn -0.525731 0.723607 -0.447214
vn -0.525731 0.723607 -0.447214
vn -0.525731 0.723607 -0.447214
vn 0.000000 0.000000 1.000000
vn 0.000000 0.000000 1.000000
vn 0.000000 0.000000 1.000000
vn 0.000000 0.000000 1.000000
vn 0.000000 0.000000 1.000000
vn 0.525731 0.723607 -0.447214
vn 0.525731 0.723607 -0.447214
vn 0.525731 0.723607 -0.447214
vn 0.525731 0.723607 -0.447214
vn 0.525731 0.723607 -0.447214
vn -0.000000 0.894427 0.447214
vn -0.000000 0.894427 0.447214
vn -0.000000 0.894427 0.447214
vn -0.000000 0.894427 0.447214
vn -0.000000 0.894427 0.447214
usemtl Steel_-_Satin
f 2/1/1 3/2/2 1/3/3
f 1/3/3 3/2/2 5/4/4
f 5/4/4 3/2/2 4/5/5
f 6/6/6 7/7/7 10/8/8
f 10/8/8 7/7/7 9/9/9
f 9/9/9 7/7/7 8/10/10
f 5/11/11 4/12/12 11/13/13
f 11/13/13 4/12/12 13/14/14
f 13/14/14 4/12/12 12/15/15
f 1/16/16 8/17/17 2/18/18
f 2/18/18 8/17/17 14/19/19
f 14/19/19 8/17/17 7/20/20
f 11/21/21 9/22/22 5/23/23
f 5/23/23 9/22/22 1/24/24
f 1/24/24 9/22/22 8/25/25
f 15/26/26 10/27/27 13/28/28
f 13/28/28 10/27/27 11/29/29
f 11/29/29 10/27/27 9/30/30
f 16/31/31 17/32/32 14/33/33
f 14/33/33 17/32/32 2/34/34
f 2/34/34 17/32/32 3/35/35
f 13/36/36 12/37/37 15/38/38
f 15/38/38 12/37/37 19/39/39
f 19/39/39 12/37/37 18/40/40
f 20/41/41 6/42/42 19/43/43
f 19/43/43 6/42/42 15/44/44
f 15/44/44 6/42/42 10/45/45
f 18/46/46 12/47/47 17/48/48
f 17/48/48 12/47/47 3/49/49
f 3/49/49 12/47/47 4/50/50
f 14/51/51 7/52/52 16/53/53
f 16/53/53 7/52/52 20/54/54
f 20/54/54 7/52/52 6/55/55
f 19/56/56 18/57/57 20/58/58
f 20/58/58 18/57/57 16/59/59
f 16/59/59 18/57/57 17/60/60
# 20 vertices
# 60 texture params
# 60 normals
# 36 facets

# 1 groups
